<svg width="24" height="24" viewBox="0 0 24 24" fill="none" xmlns="http://www.w3.org/2000/svg">
<path d="M23.953 4.57003C23.0545 4.96563 22.1026 5.22677 21.128 5.34503C22.1541 4.72828 22.9224 3.76107 23.291 2.62203C22.34 3.17703 21.286 3.58103 20.164 3.80603C19.4238 3.01446 18.4429 2.48945 17.3736 2.31253C16.3044 2.13561 15.2067 2.31668 14.2509 2.82762C13.2952 3.33856 12.5349 4.15078 12.0881 5.13815C11.6412 6.12552 11.533 7.2328 11.78 8.28803C7.69 8.09503 4.067 6.13003 1.64 3.16203C1.19879 3.91184 0.968664 4.76705 0.974 5.63703C0.974 7.34703 1.844 8.85003 3.162 9.73303C2.38086 9.70816 1.61697 9.49696 0.934 9.11703V9.17703C0.933557 10.3134 1.32627 11.415 2.04551 12.2948C2.76474 13.1746 3.76621 13.7785 4.88 14.004C4.1583 14.1974 3.40241 14.2265 2.668 14.089C2.98412 15.067 3.59766 15.922 4.42301 16.5345C5.24837 17.1471 6.24435 17.4867 7.272 17.506C5.53153 18.872 3.38248 19.6133 1.17 19.611C0.78 19.611 0.391 19.588 0 19.544C2.25571 20.9884 4.87851 21.755 7.557 21.753C16.61 21.753 21.555 14.257 21.555 7.76803C21.555 7.55803 21.555 7.34803 21.54 7.13803C22.506 6.44289 23.3392 5.57985 24 4.59003L23.953 4.57003Z" fill="#4A4A4A"/>
</svg>
